<?xml version="1.0" encoding="UTF-8"?><svg id="Layer_1" xmlns="http://www.w3.org/2000/svg" viewBox="0 0 229.9 193.2"><defs><style>.cls-1,.cls-2{fill:#ff5c00;}.cls-3{stroke:#ff5c00;}.cls-3,.cls-4{fill:none;stroke-linejoin:round;stroke-width:.7px;}.cls-4{stroke:#000;}.cls-2,.cls-5{fill-rule:evenodd;}</style></defs><polygon class="cls-5" points="18.3 26.2 12.6 50.2 12.2 51.8 11.9 53.4 11.7 54.8 11.4 56.1 11.2 57.1 11.2 57.8 11.3 58.8 11.7 59.5 12.2 60.1 12.8 60.4 13.6 60.7 14.4 60.7 15.2 60.8 16.2 60.7 17.2 60.3 18.2 59.8 19.2 59.3 20 58.8 21.5 57.7 22.7 56.4 23.8 54.9 24.7 53.3 25.5 51.6 26.2 49.9 26.8 48.1 27.2 46.4 31.9 26.6 41.5 26.6 35.3 53.7 35 55.2 34.7 56.6 34.5 57.8 34.4 58.6 34.4 59.2 34.6 59.8 35 60.3 35.6 60.6 36.2 60.7 37.3 60.5 38.3 59.9 39.3 59 40.4 57.8 41.4 56.6 42.3 55.2 43.1 53.8 43.8 52.5 44.4 51.3 44.8 50.4 46.9 51.5 46.1 53.4 45.1 55.2 44 57.1 42.8 58.8 41.4 60.3 39.8 61.8 38.1 62.9 36.3 63.8 34.3 64.4 32.2 64.6 30.7 64.5 29.4 64.1 28.3 63.7 27.4 63 26.7 62.1 26.1 61.2 25.8 60 25.5 58.7 25.4 57.3 25.4 55.7 23.8 57.5 22.2 59.2 20.5 60.7 18.7 62 16.8 63.1 14.7 63.9 12.6 64.4 10.2 64.6 8.9 64.6 7.7 64.4 6.5 64.1 5.4 63.7 4.5 63.2 3.6 62.6 3 61.6 2.4 60.6 2.1 59.3 2 58 2.1 57 2.2 55.7 2.5 54.2 2.8 52.5 3.2 50.7 7.9 28.9 .6 28.9 1.2 26.6 9.7 26.6 12.6 26.5 15.4 26.4 18.3 26.2"/><polygon class="cls-4" points="18.3 26.2 12.6 50.2 12.2 51.8 11.9 53.4 11.7 54.8 11.4 56.1 11.2 57.1 11.2 57.8 11.3 58.8 11.7 59.5 12.2 60.1 12.8 60.4 13.6 60.7 14.4 60.7 15.2 60.8 16.2 60.7 17.2 60.3 18.2 59.8 19.2 59.3 20 58.8 21.5 57.7 22.7 56.4 23.8 54.9 24.7 53.3 25.5 51.6 26.2 49.9 26.8 48.1 27.2 46.4 31.9 26.6 41.5 26.6 35.3 53.7 35 55.2 34.7 56.6 34.5 57.8 34.4 58.6 34.4 59.2 34.6 59.8 35 60.3 35.6 60.6 36.2 60.7 37.3 60.5 38.3 59.9 39.3 59 40.4 57.8 41.4 56.6 42.3 55.2 43.1 53.8 43.8 52.5 44.4 51.3 44.8 50.4 46.9 51.5 46.1 53.4 45.1 55.2 44 57.1 42.8 58.8 41.4 60.3 39.8 61.8 38.1 62.9 36.3 63.8 34.3 64.4 32.2 64.6 30.7 64.5 29.4 64.1 28.3 63.7 27.4 63 26.7 62.1 26.1 61.2 25.8 60 25.5 58.7 25.4 57.3 25.4 55.7 23.8 57.5 22.2 59.2 20.5 60.7 18.7 62 16.8 63.1 14.7 63.9 12.6 64.4 10.2 64.6 8.9 64.6 7.7 64.4 6.5 64.1 5.4 63.7 4.5 63.2 3.6 62.6 3 61.6 2.4 60.6 2.1 59.3 2 58 2.1 57 2.2 55.7 2.5 54.2 2.8 52.5 3.2 50.7 7.9 28.9 .6 28.9 1.2 26.6 9.7 26.6 12.6 26.5 15.4 26.4 18.3 26.2"/><path class="cls-5" d="M53,.4h3.1l-1.4,9.5h0l1-.8,.9-.5,1-.3h2.4l1.2,.6,1,.8,.8,1.1,.6,1.3,.4,1.5v4.2l-.4,1.2-.6,1.2-.6,1.1-.9,1-1,.9-1.3,.7-1.5,.6-1.7,.3-2,.2h-2.4l-1-.2h-.8L53,.4Zm4.7,10.4h-.6l-.7,.2-.7,.3-.6,.4-.6,.5-.2,.6-1.4,9.7h3.1l1.3-.5,1.1-.6,.9-.9,.8-1,.6-1.2,.3-1.4v-2.9l-.3-1.1-.5-.9-.7-.6-.8-.4-1-.2Z"/><path class="cls-4" d="M53,.4h3.1l-1.4,9.5h0l1-.8,.9-.5,1-.3h2.4l1.2,.6,1,.8,.8,1.1,.6,1.3,.4,1.5v4.2l-.4,1.2-.6,1.2-.6,1.1-.9,1-1,.9-1.3,.7-1.5,.6-1.7,.3-2,.2h-2.4l-1-.2h-.8L53,.4Zm4.7,10.4h-.6l-.7,.2-.7,.3-.6,.4-.6,.5-.2,.6-1.4,9.7h3.1l1.3-.5,1.1-.6,.9-.9,.8-1,.6-1.2,.3-1.4v-2.9l-.3-1.1-.5-.9-.7-.6-.8-.4-1-.2Z"/><rect x=".8" y="102.1" width="191.6" height="1.9"/><rect class="cls-4" x=".8" y="102.1" width="191.6" height="1.9"/><path class="cls-5" d="M2.3,110.4h1l-.4,3.2,.6-.4h1.5l.6,.6,.4,.8v2.2l-.4,.6-.4,.5-.6,.4-.8,.3H1.1l1.1-8.2Zm1.6,3.5h-.6l-.3,.3v.3l-.6,3.3h1.3l.6-.5,.5-.5,.3-.7v-1.5l-.3-.5-.3-.3h-.5Z"/><path class="cls-4" d="M2.3,110.4h1l-.4,3.2,.6-.4h1.5l.6,.6,.4,.8v2.2l-.4,.6-.4,.5-.6,.4-.8,.3H1.1l1.1-8.2Zm1.6,3.5h-.6l-.3,.3v.3l-.6,3.3h1.3l.6-.5,.5-.5,.3-.7v-1.5l-.3-.5-.3-.3h-.5Z"/><polygon class="cls-5" points="1.5 125.2 3.7 125.2 3.7 130 3.7 130.6 3.9 131.1 4.1 131.6 4.6 131.8 5.1 132 5.7 131.8 6.1 131.6 6.4 131.1 6.5 130.6 6.6 130 6.6 125.2 8.8 125.2 8.8 130.3 8.7 131.3 8.3 132.2 7.8 132.8 7.1 133.3 6.2 133.5 5.1 133.6 4.1 133.5 3.2 133.3 2.5 132.8 1.9 132.2 1.6 131.3 1.5 130.3 1.5 125.2"/><polygon class="cls-4" points="1.5 125.2 3.7 125.2 3.7 130 3.7 130.6 3.9 131.1 4.1 131.6 4.6 131.8 5.1 132 5.7 131.8 6.1 131.6 6.4 131.1 6.5 130.6 6.6 130 6.6 125.2 8.8 125.2 8.8 130.3 8.7 131.3 8.3 132.2 7.8 132.8 7.1 133.3 6.2 133.5 5.1 133.6 4.1 133.5 3.2 133.3 2.5 132.8 1.9 132.2 1.6 131.3 1.5 130.3 1.5 125.2"/><polygon class="cls-5" points="11.7 125.2 14.6 125.2 17.4 130.8 17.4 130.8 17.4 125.2 19.4 125.2 19.4 133.4 16.7 133.4 13.7 127.8 13.8 133.4 11.7 133.4 11.7 125.2"/><polygon class="cls-4" points="11.7 125.2 14.6 125.2 17.4 130.8 17.4 130.8 17.4 125.2 19.4 125.2 19.4 133.4 16.7 133.4 13.7 127.8 13.8 133.4 11.7 133.4 11.7 125.2"/><rect x="22.7" y="125.2" width="2.2" height="8.3"/><rect class="cls-4" x="22.7" y="125.2" width="2.2" height="8.3"/><polygon class="cls-5" points="27.2 125.2 29.6 125.2 31.4 131.7 31.5 131.7 33.3 125.2 35.6 125.2 32.7 133.4 30 133.4 27.2 125.2"/><polygon class="cls-4" points="27.2 125.2 29.6 125.2 31.4 131.7 31.5 131.7 33.3 125.2 35.6 125.2 32.7 133.4 30 133.4 27.2 125.2"/><polygon class="cls-5" points="37.8 125.2 43.7 125.2 43.7 126.7 40 126.7 40 128.4 43.5 128.4 43.5 130 40 130 40 131.9 43.9 131.9 43.9 133.4 37.8 133.4 37.8 125.2"/><polygon class="cls-4" points="37.8 125.2 43.7 125.2 43.7 126.7 40 126.7 40 128.4 43.5 128.4 43.5 130 40 130 40 131.9 43.9 131.9 43.9 133.4 37.8 133.4 37.8 125.2"/><path class="cls-5" d="M46.6,125.2h4.8l.8,.3,.6,.3,.4,.6v1.5l-.2,.6-.5,.4-.8,.3h0l.5,.3,.3,.3,.2,.5,.2,.7,.8,2.2h-2.3l-.5-1.5-.3-.9-.3-.6-.4-.3h-1v3.2h-2.2v-8.3Zm2.2,1.5v2h1.5l.4-.3,.3-.3v-.9l-.4-.3h-.5l-.6-.2h-.6Z"/><path class="cls-4" d="M46.6,125.2h4.8l.8,.3,.6,.3,.4,.6v1.5l-.2,.6-.5,.4-.8,.3h0l.5,.3,.3,.3,.2,.5,.2,.7,.8,2.2h-2.3l-.5-1.5-.3-.9-.3-.6-.4-.3h-1v3.2h-2.2v-8.3Zm2.2,1.5v2h1.5l.4-.3,.3-.3v-.9l-.4-.3h-.5l-.6-.2h-.6Z"/><polygon class="cls-5" points="59.4 125 60.6 125.1 61.6 125.3 61.5 127 60.6 126.8 59.7 126.6 59.2 126.7 58.9 126.7 58.5 126.8 58.3 127 58.1 127.4 58.3 127.7 58.5 128 59 128.2 59.5 128.3 60.1 128.5 60.7 128.8 61.2 129.1 61.7 129.5 61.9 130.1 62.1 130.9 61.9 131.7 61.7 132.4 61.2 132.9 60.6 133.2 59.9 133.4 59.2 133.6 58.4 133.6 57.2 133.5 55.9 133.2 56.1 131.4 57.2 131.8 58.4 132 58.9 131.9 59.4 131.8 59.7 131.6 59.8 131.1 59.7 130.8 59.4 130.4 59 130.2 58.4 130.1 57.8 129.9 57.2 129.7 56.7 129.4 56.2 128.9 56 128.3 55.8 127.5 56 126.8 56.2 126.2 56.7 125.7 57.4 125.4 58.1 125.2 58.8 125 59.4 125"/><polygon class="cls-4" points="59.4 125 60.6 125.1 61.6 125.3 61.5 127 60.6 126.8 59.7 126.6 59.2 126.7 58.9 126.7 58.5 126.8 58.3 127 58.1 127.4 58.3 127.7 58.5 128 59 128.2 59.5 128.3 60.1 128.5 60.7 128.8 61.2 129.1 61.7 129.5 61.9 130.1 62.1 130.9 61.9 131.7 61.7 132.4 61.2 132.9 60.6 133.2 59.9 133.4 59.2 133.6 58.4 133.6 57.2 133.5 55.9 133.2 56.1 131.4 57.2 131.8 58.4 132 58.9 131.9 59.4 131.8 59.7 131.6 59.8 131.1 59.7 130.8 59.4 130.4 59 130.2 58.4 130.1 57.8 129.9 57.2 129.7 56.7 129.4 56.2 128.9 56 128.3 55.8 127.5 56 126.8 56.2 126.2 56.7 125.7 57.4 125.4 58.1 125.2 58.8 125 59.4 125"/><rect x="64.9" y="125.2" width="2.2" height="8.3"/><rect class="cls-4" x="64.9" y="125.2" width="2.2" height="8.3"/><polygon class="cls-5" points="69.2 125.2 75.5 125.2 75.5 126.8 73.4 126.8 73.4 133.4 71.2 133.4 71.2 126.8 69.2 126.8 69.2 125.2"/><polygon class="cls-4" points="69.2 125.2 75.5 125.2 75.5 126.8 73.4 126.8 73.4 133.4 71.2 133.4 71.2 126.8 69.2 126.8 69.2 125.2"/><path class="cls-5" d="M78.8,123h1.7v1.7h-1.7v-1.7Zm2.7,0h1.7v1.7h-1.7v-1.7Zm-1.9,2.2h2.7l3.2,8.3h-2.4l-.6-1.7h-3.1l-.7,1.7h-2.2l3.1-8.3Zm1.3,1.7l-1.1,3.2h2.1l-1-3.2h0Z"/><path class="cls-4" d="M78.8,123h1.7v1.7h-1.7v-1.7Zm2.7,0h1.7v1.7h-1.7v-1.7Zm-1.9,2.2h2.7l3.2,8.3h-2.4l-.6-1.7h-3.1l-.7,1.7h-2.2l3.1-8.3Zm1.3,1.7l-1.1,3.2h2.1l-1-3.2h0Z"/><polygon class="cls-5" points="86.6 125.2 92.9 125.2 92.9 126.8 90.8 126.8 90.8 133.4 88.6 133.4 88.6 126.8 86.6 126.8 86.6 125.2"/><polygon class="cls-4" points="86.6 125.2 92.9 125.2 92.9 126.8 90.8 126.8 90.8 133.4 88.6 133.4 88.6 126.8 86.6 126.8 86.6 125.2"/><path class="cls-5" d="M1.5,140H6.2l.8,.4,.6,.4,.4,.5v1.5l-.3,.5-.5,.4-.6,.3h0l.8,.3,.5,.4,.3,.5v1.6l-.4,.6-.6,.4-.7,.3h-.7l-.8,.2H1.5v-8.4Zm2.2,1.6v1.7h1.7l.3-.4v-.9l-.3-.2h-1.7Zm0,3.1v2h1.6l.4-.3,.2-.3v-.8l-.2-.3-.4-.2h-1.6Z"/><path class="cls-4" d="M1.5,140H6.2l.8,.4,.6,.4,.4,.5v1.5l-.3,.5-.5,.4-.6,.3h0l.8,.3,.5,.4,.3,.5v1.6l-.4,.6-.6,.4-.7,.3h-.7l-.8,.2H1.5v-8.4Zm2.2,1.6v1.7h1.7l.3-.4v-.9l-.3-.2h-1.7Zm0,3.1v2h1.6l.4-.3,.2-.3v-.8l-.2-.3-.4-.2h-1.6Z"/><polygon class="cls-5" points="10.8 140 16.7 140 16.7 141.6 13 141.6 13 143.3 16.5 143.3 16.5 144.9 13 144.9 13 146.8 16.8 146.8 16.8 148.4 10.8 148.4 10.8 140"/><polygon class="cls-4" points="10.8 140 16.7 140 16.7 141.6 13 141.6 13 143.3 16.5 143.3 16.5 144.9 13 144.9 13 146.8 16.8 146.8 16.8 148.4 10.8 148.4 10.8 140"/><path class="cls-5" d="M19.7,140h4.8l.8,.4,.6,.4,.4,.5v1.5l-.3,.6-.5,.4-.7,.3h0l.4,.3,.3,.4,.2,.5,.3,.7,.8,2.3h-2.4l-.5-1.5-.3-.9-.4-.5-.4-.3h-1v3.2h-2.2v-8.3Zm2.2,1.6v1.9h1.4l.4-.2,.3-.3v-1l-.4-.3h-1.7Z"/><path class="cls-4" d="M19.7,140h4.8l.8,.4,.6,.4,.4,.5v1.5l-.3,.6-.5,.4-.7,.3h0l.4,.3,.3,.4,.2,.5,.3,.7,.8,2.3h-2.4l-.5-1.5-.3-.9-.4-.5-.4-.3h-1v3.2h-2.2v-8.3Zm2.2,1.6v1.9h1.4l.4-.2,.3-.3v-1l-.4-.3h-1.7Z"/><polygon class="cls-5" points="29.2 140 32 140 34.8 145.7 34.8 140 36.8 140 36.8 148.4 34.1 148.4 31.2 142.7 31.1 142.7 31.2 148.4 29.2 148.4 29.2 140"/><polygon class="cls-4" points="29.2 140 32 140 34.8 145.7 34.8 140 36.8 140 36.8 148.4 34.1 148.4 31.2 142.7 31.1 142.7 31.2 148.4 29.2 148.4 29.2 140"/><path class="cls-2" d="M3.7,169.4h1.9l3.3,8.3h-1.9l-.7-1.9H2.8l-.7,1.9H.4l3.3-8.3Zm.9,1.7l-1.2,3.4h2.4l-1.2-3.4h0Z"/><path class="cls-3" d="M3.7,169.4h1.9l3.3,8.3h-1.9l-.7-1.9H2.8l-.7,1.9H.4l3.3-8.3Zm.9,1.7l-1.2,3.4h2.4l-1.2-3.4h0Z"/><path class="cls-2" d="M11.6,169.4h4.1l.6,.4,.5,.4,.3,.6v1.5l-.3,.6-.5,.5-.8,.2h.4v.4h.3v.4l.2,.2,1.3,3.2h-1.8l-1-2.6-.2-.5-.3-.3h-1.1v3.3h-1.7v-8.3Zm1.6,1.3v2.2h1.5l.4-.4,.3-.3v-1l-.3-.3h-.4l-.5-.2h-1.1Z"/><path class="cls-3" d="M11.6,169.4h4.1l.6,.4,.5,.4,.3,.6v1.5l-.3,.6-.5,.5-.8,.2h.4v.4h.3v.4l.2,.2,1.3,3.2h-1.8l-1-2.6-.2-.5-.3-.3h-1.1v3.3h-1.7v-8.3Zm1.6,1.3v2.2h1.5l.4-.4,.3-.3v-1l-.3-.3h-.4l-.5-.2h-1.1Z"/><polygon class="cls-2" points="19.8 169.4 26.2 169.4 26.2 170.7 23.8 170.7 23.8 177.7 22.2 177.7 22.2 170.7 19.8 170.7 19.8 169.4"/><polygon class="cls-3" points="19.8 169.4 26.2 169.4 26.2 170.7 23.8 170.7 23.8 177.7 22.2 177.7 22.2 170.7 19.8 170.7 19.8 169.4"/><path class="cls-2" d="M32.8,169.3h1.2l1,.6,.8,.6,.6,.8,.3,1v2.4l-.3,1-.6,.9-.8,.6-1,.4h-2.5l-1-.4-.8-.6-.6-.8-.4-1v-2.4l.4-1,.6-.8,.8-.7,1.1-.3h1.2Zm0,1.2h-.8l-.6,.4-.5,.5-.3,.6-.2,.7v1.5l.2,.7,.3,.6,.5,.5,.6,.3h1.5l.6-.3,.4-.5,.3-.6,.2-.7v-1.5l-.2-.7-.3-.6-.5-.5-.6-.3h-.8Z"/><path class="cls-3" d="M32.8,169.3h1.2l1,.6,.8,.6,.6,.8,.3,1v2.4l-.3,1-.6,.9-.8,.6-1,.4h-2.5l-1-.4-.8-.6-.6-.8-.4-1v-2.4l.4-1,.6-.8,.8-.7,1.1-.3h1.2Zm0,1.2h-.8l-.6,.4-.5,.5-.3,.6-.2,.7v1.5l.2,.7,.3,.6,.5,.5,.6,.3h1.5l.6-.3,.4-.5,.3-.6,.2-.7v-1.5l-.2-.7-.3-.6-.5-.5-.6-.3h-.8Z"/><path class="cls-2" d="M40.1,169.4h4.1l.7,.4,.5,.4,.4,.6v1.5l-.4,.6-.6,.5-.7,.2h.4v.4h.3v.4l.2,.2,1.3,3.2h-1.9l-1-2.6-.3-.5-.3-.3h-1.1v3.3h-1.7v-8.3Zm1.7,1.3v2.2h1.5l.4-.4,.3-.3v-1l-.3-.3h-.4l-.4-.2h-1.1Z"/><path class="cls-3" d="M40.1,169.4h4.1l.7,.4,.5,.4,.4,.6v1.5l-.4,.6-.6,.5-.7,.2h.4v.4h.3v.4l.2,.2,1.3,3.2h-1.9l-1-2.6-.3-.5-.3-.3h-1.1v3.3h-1.7v-8.3Zm1.7,1.3v2.2h1.5l.4-.4,.3-.3v-1l-.3-.3h-.4l-.4-.2h-1.1Z"/><polygon class="cls-2" points="53.6 169.3 54.9 169.3 56 169.6 55.9 171 54.9 170.6 53.8 170.6 52.7 170.7 51.9 171.1 51.2 171.8 50.9 172.6 50.8 173.6 50.9 174.6 51.2 175.3 51.8 176 52.6 176.3 53.6 176.6 54 176.5 54.4 176.5 54.7 176.4 54.7 174.3 52.9 174.3 52.9 172.9 56.3 172.9 56.3 177.4 54.9 177.8 53.6 177.8 52.5 177.8 51.5 177.5 50.7 177.1 50 176.5 49.4 175.7 49.2 174.8 49 173.7 49.2 172.4 49.6 171.3 50.3 170.4 51.2 169.8 52.3 169.4 53.6 169.3"/><polygon class="cls-3" points="53.6 169.3 54.9 169.3 56 169.6 55.9 171 54.9 170.6 53.8 170.6 52.7 170.7 51.9 171.1 51.2 171.8 50.9 172.6 50.8 173.6 50.9 174.6 51.2 175.3 51.8 176 52.6 176.3 53.6 176.6 54 176.5 54.4 176.5 54.7 176.4 54.7 174.3 52.9 174.3 52.9 172.9 56.3 172.9 56.3 177.4 54.9 177.8 53.6 177.8 52.5 177.8 51.5 177.5 50.7 177.1 50 176.5 49.4 175.7 49.2 174.8 49 173.7 49.2 172.4 49.6 171.3 50.3 170.4 51.2 169.8 52.3 169.4 53.6 169.3"/><polygon class="cls-2" points="69.3 169.3 70.2 169.3 71.1 169.6 71 171 70.1 170.6 69.2 170.6 68.3 170.7 67.4 171.1 66.9 171.8 66.5 172.6 66.4 173.6 66.5 174.6 66.9 175.3 67.4 176 68.3 176.3 69.3 176.6 69.9 176.5 70.6 176.3 71.1 176.2 71.1 177.6 70.2 177.8 69.3 177.8 68.1 177.8 67.2 177.5 66.3 177.1 65.6 176.5 65.1 175.7 64.8 174.8 64.7 173.7 64.8 172.4 65.2 171.3 65.9 170.4 66.8 169.8 67.9 169.4 69.3 169.3"/><polygon class="cls-3" points="69.3 169.3 70.2 169.3 71.1 169.6 71 171 70.1 170.6 69.2 170.6 68.3 170.7 67.4 171.1 66.9 171.8 66.5 172.6 66.4 173.6 66.5 174.6 66.9 175.3 67.4 176 68.3 176.3 69.3 176.6 69.9 176.5 70.6 176.3 71.1 176.2 71.1 177.6 70.2 177.8 69.3 177.8 68.1 177.8 67.2 177.5 66.3 177.1 65.6 176.5 65.1 175.7 64.8 174.8 64.7 173.7 64.8 172.4 65.2 171.3 65.9 170.4 66.8 169.8 67.9 169.4 69.3 169.3"/><polygon class="cls-2" points="74.2 169.4 79.1 169.4 79.1 170.7 75.9 170.7 75.9 172.7 78.9 172.7 78.9 174.1 75.9 174.1 75.9 176.4 79.1 176.4 79.1 177.7 74.2 177.7 74.2 169.4"/><polygon class="cls-3" points="74.2 169.4 79.1 169.4 79.1 170.7 75.9 170.7 75.9 172.7 78.9 172.7 78.9 174.1 75.9 174.1 75.9 176.4 79.1 176.4 79.1 177.7 74.2 177.7 74.2 169.4"/><polygon class="cls-2" points="82.6 169.4 84.7 169.4 87.8 175.6 87.9 175.6 87.9 169.4 89.5 169.4 89.5 177.7 87.4 177.7 84.3 171.5 84.2 171.5 84.2 177.7 82.6 177.7 82.6 169.4"/><polygon class="cls-3" points="82.6 169.4 84.7 169.4 87.8 175.6 87.9 175.6 87.9 169.4 89.5 169.4 89.5 177.7 87.4 177.7 84.3 171.5 84.2 171.5 84.2 177.7 82.6 177.7 82.6 169.4"/><polygon class="cls-2" points="92.3 169.4 98.7 169.4 98.7 170.7 96.4 170.7 96.4 177.7 94.7 177.7 94.7 170.7 92.3 170.7 92.3 169.4"/><polygon class="cls-3" points="92.3 169.4 98.7 169.4 98.7 170.7 96.4 170.7 96.4 177.7 94.7 177.7 94.7 170.7 92.3 170.7 92.3 169.4"/><polygon class="cls-2" points="101.7 169.4 106.6 169.4 106.6 170.7 103.3 170.7 103.3 172.7 106.3 172.7 106.3 174.1 103.3 174.1 103.3 176.4 106.6 176.4 106.6 177.7 101.7 177.7 101.7 169.4"/><polygon class="cls-3" points="101.7 169.4 106.6 169.4 106.6 170.7 103.3 170.7 103.3 172.7 106.3 172.7 106.3 174.1 103.3 174.1 103.3 176.4 106.6 176.4 106.6 177.7 101.7 177.7 101.7 169.4"/><path class="cls-2" d="M110,169.4h4.1l.6,.4,.6,.4,.3,.6v1.5l-.3,.6-.6,.5-.7,.2h.4v.4h.3v.4l.2,.2,1.3,3.2h-1.8l-1-2.6-.2-.5-.4-.3h-1.1v3.3h-1.7v-8.3Zm1.7,1.3v2.2h1.5l.4-.4,.3-.3v-1l-.3-.3h-.4l-.5-.2h-1Z"/><path class="cls-3" d="M110,169.4h4.1l.6,.4,.6,.4,.3,.6v1.5l-.3,.6-.6,.5-.7,.2h.4v.4h.3v.4l.2,.2,1.3,3.2h-1.8l-1-2.6-.2-.5-.4-.3h-1.1v3.3h-1.7v-8.3Zm1.7,1.3v2.2h1.5l.4-.4,.3-.3v-1l-.3-.3h-.4l-.5-.2h-1Z"/><path class="cls-2" d="M1.5,184.3h3.2l.8,.3,.6,.4,.4,.6v1.6l-.3,.5-.6,.4-.7,.2h0l.8,.2,.6,.4,.4,.6v1.6l-.3,.6-.6,.4-.6,.3H1.5v-8.1Zm1.2,1v2.6h1.9l.5-.3,.3-.4v-1.1l-.2-.3-.3-.2H2.7Zm0,3.4v2.8h2l.5-.4,.3-.4v-1.2l-.3-.4-.5-.3h-2Z"/><path class="cls-3" d="M1.5,184.3h3.2l.8,.3,.6,.4,.4,.6v1.6l-.3,.5-.6,.4-.7,.2h0l.8,.2,.6,.4,.4,.6v1.6l-.3,.6-.6,.4-.6,.3H1.5v-8.1Zm1.2,1v2.6h1.9l.5-.3,.3-.4v-1.1l-.2-.3-.3-.2H2.7Zm0,3.4v2.8h2l.5-.4,.3-.4v-1.2l-.3-.4-.5-.3h-2Z"/><rect class="cls-1" x="9.4" y="184.3" width="1.2" height="8.3"/><rect class="cls-3" x="9.4" y="184.3" width="1.2" height="8.3"/><path class="cls-2" d="M16.8,184.2h1.2l1,.5,.8,.6,.6,.9,.3,1v2.4l-.3,1-.6,.8-.8,.7-1,.3-1.2,.2-1.1-.2-1.1-.3-.8-.7-.6-.8-.3-1v-2.4l.3-1,.6-.9,.8-.6,1.1-.4h1.1Zm0,.9h-.8l-.6,.4-.6,.5-.4,.7-.2,.8v1.6l.2,.8,.3,.7,.6,.6,.7,.3h1.7l.7-.3,.6-.6,.3-.7,.2-.8v-1.6l-.2-.8-.4-.7-.6-.5-.6-.3h-.9Z"/><path class="cls-3" d="M16.8,184.2h1.2l1,.5,.8,.6,.6,.9,.3,1v2.4l-.3,1-.6,.8-.8,.7-1,.3-1.2,.2-1.1-.2-1.1-.3-.8-.7-.6-.8-.3-1v-2.4l.3-1,.6-.9,.8-.6,1.1-.4h1.1Zm0,.9h-.8l-.6,.4-.6,.5-.4,.7-.2,.8v1.6l.2,.8,.3,.7,.6,.6,.7,.3h1.7l.7-.3,.6-.6,.3-.7,.2-.8v-1.6l-.2-.8-.4-.7-.6-.5-.6-.3h-.9Z"/><polygon class="cls-2" points="23.1 184.3 25.1 184.3 27.7 191.2 30.2 184.3 32.2 184.3 32.2 192.6 31 192.6 31 185.5 28.3 192.6 27.1 192.6 24.3 185.5 24.3 192.6 23.1 192.6 23.1 184.3"/><polygon class="cls-3" points="23.1 184.3 25.1 184.3 27.7 191.2 30.2 184.3 32.2 184.3 32.2 192.6 31 192.6 31 185.5 28.3 192.6 27.1 192.6 24.3 185.5 24.3 192.6 23.1 192.6 23.1 184.3"/><polygon class="cls-2" points="35 184.3 39.6 184.3 39.6 185.4 36.1 185.4 36.1 187.8 39.3 187.8 39.3 188.9 36.1 188.9 36.1 191.6 39.6 191.6 39.6 192.6 35 192.6 35 184.3"/><polygon class="cls-3" points="35 184.3 39.6 184.3 39.6 185.4 36.1 185.4 36.1 187.8 39.3 187.8 39.3 188.9 36.1 188.9 36.1 191.6 39.6 191.6 39.6 192.6 35 192.6 35 184.3"/><path class="cls-2" d="M42.1,184.3h3.6l1,.5,.9,.6,.7,.8,.5,1v2.5l-.4,1-.6,.8-.9,.6-1.1,.3h-3.7v-8.2Zm1.2,1v6.2h2.4l.9-.5,.6-.6,.4-.8v-2.2l-.5-.8-.6-.7-.8-.3h-1l-1.4-.2Z"/><path class="cls-3" d="M42.1,184.3h3.6l1,.5,.9,.6,.7,.8,.5,1v2.5l-.4,1-.6,.8-.9,.6-1.1,.3h-3.7v-8.2Zm1.2,1v6.2h2.4l.9-.5,.6-.6,.4-.8v-2.2l-.5-.8-.6-.7-.8-.3h-1l-1.4-.2Z"/><rect class="cls-1" x="51.3" y="184.3" width="1.2" height="8.3"/><rect class="cls-3" x="51.3" y="184.3" width="1.2" height="8.3"/><polygon class="cls-2" points="59.1 184.2 60.1 184.3 61 184.6 60.9 185.7 60.1 185.3 59.2 185.3 58.1 185.4 57.2 185.9 56.5 186.6 56.1 187.4 56 188.5 56.2 189.6 56.6 190.5 57.3 191.2 58.1 191.6 59.1 191.7 59.8 191.7 60.4 191.6 60.9 191.4 61 192.5 60 192.8 59.1 192.8 57.8 192.7 56.8 192.3 55.9 191.7 55.3 190.8 54.9 189.7 54.7 188.5 54.9 187.3 55.3 186.2 56 185.4 56.9 184.7 57.9 184.3 59.1 184.2"/><polygon class="cls-3" points="59.1 184.2 60.1 184.3 61 184.6 60.9 185.7 60.1 185.3 59.2 185.3 58.1 185.4 57.2 185.9 56.5 186.6 56.1 187.4 56 188.5 56.2 189.6 56.6 190.5 57.3 191.2 58.1 191.6 59.1 191.7 59.8 191.7 60.4 191.6 60.9 191.4 61 192.5 60 192.8 59.1 192.8 57.8 192.7 56.8 192.3 55.9 191.7 55.3 190.8 54.9 189.7 54.7 188.5 54.9 187.3 55.3 186.2 56 185.4 56.9 184.7 57.9 184.3 59.1 184.2"/><path class="cls-2" d="M65.6,184.3h1.2l3.6,8.3h-1.3l-.8-2.1h-4.1l-.8,2.1h-1.3l3.5-8.3Zm.6,1.1l-1.6,4.1h3.3l-1.7-4.1Z"/><path class="cls-3" d="M65.6,184.3h1.2l3.6,8.3h-1.3l-.8-2.1h-4.1l-.8,2.1h-1.3l3.5-8.3Zm.6,1.1l-1.6,4.1h3.3l-1.7-4.1Z"/><polygon class="cls-2" points="72.2 184.3 73.4 184.3 73.4 191.6 76.8 191.6 76.8 192.6 72.2 192.6 72.2 184.3"/><polygon class="cls-3" points="72.2 184.3 73.4 184.3 73.4 191.6 76.8 191.6 76.8 192.6 72.2 192.6 72.2 184.3"/><polygon class="cls-2" points="82.6 184.3 87.3 184.3 87.3 185.4 83.8 185.4 83.8 187.8 87 187.8 87 188.9 83.8 188.9 83.8 191.6 87.3 191.6 87.3 192.6 82.6 192.6 82.6 184.3"/><polygon class="cls-3" points="82.6 184.3 87.3 184.3 87.3 185.4 83.8 185.4 83.8 187.8 87 187.8 87 188.9 83.8 188.9 83.8 191.6 87.3 191.6 87.3 192.6 82.6 192.6 82.6 184.3"/><polygon class="cls-2" points="89.8 184.3 91.4 184.3 95.1 191 95.1 184.3 96.2 184.3 96.2 192.6 94.7 192.6 91 185.8 91 192.6 89.8 192.6 89.8 184.3"/><polygon class="cls-3" points="89.8 184.3 91.4 184.3 95.1 191 95.1 184.3 96.2 184.3 96.2 192.6 94.7 192.6 91 185.8 91 192.6 89.8 192.6 89.8 184.3"/><polygon class="cls-2" points="102.9 184.2 103.7 184.2 104.3 184.3 104.9 184.4 105.4 184.6 105.2 185.8 104.7 185.5 103.9 185.3 103 185.3 101.9 185.4 101 185.9 100.3 186.6 99.9 187.4 99.8 188.5 99.9 189.6 100.3 190.5 101 191.2 101.9 191.6 102.9 191.7 103.5 191.7 104 191.7 104.2 191.6 104.2 189.1 102.5 189.1 102.5 188.1 105.4 188.1 105.4 192.4 104.9 192.6 104 192.8 102.8 192.8 101.7 192.7 100.6 192.3 99.7 191.7 99 190.8 98.6 189.7 98.5 188.5 98.7 187.3 99.1 186.2 99.7 185.4 100.6 184.7 101.7 184.3 102.9 184.2"/><polygon class="cls-3" points="102.9 184.2 103.7 184.2 104.3 184.3 104.9 184.4 105.4 184.6 105.2 185.8 104.7 185.5 103.9 185.3 103 185.3 101.9 185.4 101 185.9 100.3 186.6 99.9 187.4 99.8 188.5 99.9 189.6 100.3 190.5 101 191.2 101.9 191.6 102.9 191.7 103.5 191.7 104 191.7 104.2 191.6 104.2 189.1 102.5 189.1 102.5 188.1 105.4 188.1 105.4 192.4 104.9 192.6 104 192.8 102.8 192.8 101.7 192.7 100.6 192.3 99.7 191.7 99 190.8 98.6 189.7 98.5 188.5 98.7 187.3 99.1 186.2 99.7 185.4 100.6 184.7 101.7 184.3 102.9 184.2"/><rect class="cls-1" x="108.1" y="184.3" width="1.2" height="8.3"/><rect class="cls-3" x="108.1" y="184.3" width="1.2" height="8.3"/><polygon class="cls-2" points="112 184.3 113.6 184.3 117.2 191 117.2 184.3 118.5 184.3 118.5 192.6 117 192.6 113.1 185.8 113.1 192.6 112 192.6 112 184.3"/><polygon class="cls-3" points="112 184.3 113.6 184.3 117.2 191 117.2 184.3 118.5 184.3 118.5 192.6 117 192.6 113.1 185.8 113.1 192.6 112 192.6 112 184.3"/><polygon class="cls-2" points="121.2 184.3 125.9 184.3 125.9 185.4 122.4 185.4 122.4 187.8 125.5 187.8 125.5 188.9 122.4 188.9 122.4 191.6 125.9 191.6 125.9 192.6 121.2 192.6 121.2 184.3"/><polygon class="cls-3" points="121.2 184.3 125.9 184.3 125.9 185.4 122.4 185.4 122.4 187.8 125.5 187.8 125.5 188.9 122.4 188.9 122.4 191.6 125.9 191.6 125.9 192.6 121.2 192.6 121.2 184.3"/><polygon class="cls-2" points="128.4 184.3 133 184.3 133 185.4 129.6 185.4 129.6 187.8 132.8 187.8 132.8 188.9 129.6 188.9 129.6 191.6 133 191.6 133 192.6 128.4 192.6 128.4 184.3"/><polygon class="cls-3" points="128.4 184.3 133 184.3 133 185.4 129.6 185.4 129.6 187.8 132.8 187.8 132.8 188.9 129.6 188.9 129.6 191.6 133 191.6 133 192.6 128.4 192.6 128.4 184.3"/><path class="cls-2" d="M135.5,184.3h3.6l.6,.4,.6,.4,.4,.6v1.5l-.4,.5-.6,.4-.6,.2h.2v.3h.3v.4l.3,.3,1.6,3.3h-1.4l-1.2-2.8-.4-.6-.5-.2h-1.2v3.6h-1.2v-8.3Zm1.2,1v2.5h1.8l.6-.3,.4-.4v-1l-.3-.3-.5-.3h-1.9Z"/><path class="cls-3" d="M135.5,184.3h3.6l.6,.4,.6,.4,.4,.6v1.5l-.4,.5-.6,.4-.6,.2h.2v.3h.3v.4l.3,.3,1.6,3.3h-1.4l-1.2-2.8-.4-.6-.5-.2h-1.2v3.6h-1.2v-8.3Zm1.2,1v2.5h1.8l.6-.3,.4-.4v-1l-.3-.3-.5-.3h-1.9Z"/><rect class="cls-1" x="143.3" y="184.3" width="1.2" height="8.3"/><rect class="cls-3" x="143.3" y="184.3" width="1.2" height="8.3"/><polygon class="cls-2" points="147.2 184.3 148.8 184.3 152.5 191 152.5 184.3 153.8 184.3 153.8 192.6 152.2 192.6 148.5 185.8 148.4 185.8 148.4 192.6 147.2 192.6 147.2 184.3"/><polygon class="cls-3" points="147.2 184.3 148.8 184.3 152.5 191 152.5 184.3 153.8 184.3 153.8 192.6 152.2 192.6 148.5 185.8 148.4 185.8 148.4 192.6 147.2 192.6 147.2 184.3"/><polygon class="cls-2" points="160.4 184.2 161.2 184.2 161.8 184.3 162.3 184.4 162.8 184.6 162.7 185.8 162.1 185.5 161.3 185.3 160.4 185.3 159.4 185.4 158.5 185.9 157.8 186.6 157.4 187.4 157.2 188.5 157.4 189.6 157.9 190.5 158.6 191.2 159.4 191.6 160.4 191.7 161 191.7 161.4 191.7 161.7 191.6 161.7 189.1 160 189.1 160 188.1 162.9 188.1 162.9 192.4 162.3 192.6 161.5 192.8 160.4 192.8 159.1 192.7 158.1 192.3 157.2 191.7 156.5 190.8 156.1 189.7 156 188.5 156.1 187.3 156.5 186.2 157.2 185.4 158.1 184.7 159.2 184.3 160.4 184.2"/><polygon class="cls-3" points="160.4 184.2 161.2 184.2 161.8 184.3 162.3 184.4 162.8 184.6 162.7 185.8 162.1 185.5 161.3 185.3 160.4 185.3 159.4 185.4 158.5 185.9 157.8 186.6 157.4 187.4 157.2 188.5 157.4 189.6 157.9 190.5 158.6 191.2 159.4 191.6 160.4 191.7 161 191.7 161.4 191.7 161.7 191.6 161.7 189.1 160 189.1 160 188.1 162.9 188.1 162.9 192.4 162.3 192.6 161.5 192.8 160.4 192.8 159.1 192.7 158.1 192.3 157.2 191.7 156.5 190.8 156.1 189.7 156 188.5 156.1 187.3 156.5 186.2 157.2 185.4 158.1 184.7 159.2 184.3 160.4 184.2"/><path class="cls-2" d="M169.4,184.3h3.6l.7,.4,.6,.4,.4,.6v1.5l-.4,.5-.5,.4-.6,.2h.2v.3h.3v.4l.3,.3,1.6,3.3h-1.4l-1.2-2.8-.4-.6-.4-.2h-1.2v3.6h-1.2v-8.3Zm1.2,1v2.5h1.8l.6-.3,.4-.4v-1l-.3-.3-.5-.3h-1.9Z"/><path class="cls-3" d="M169.4,184.3h3.6l.7,.4,.6,.4,.4,.6v1.5l-.4,.5-.5,.4-.6,.2h.2v.3h.3v.4l.3,.3,1.6,3.3h-1.4l-1.2-2.8-.4-.6-.4-.2h-1.2v3.6h-1.2v-8.3Zm1.2,1v2.5h1.8l.6-.3,.4-.4v-1l-.3-.3-.5-.3h-1.9Z"/><polygon class="cls-2" points="177.3 184.3 182 184.3 182 185.4 178.5 185.4 178.5 187.8 181.7 187.8 181.7 188.9 178.5 188.9 178.5 191.6 182 191.6 182 192.6 177.3 192.6 177.3 184.3"/><polygon class="cls-3" points="177.3 184.3 182 184.3 182 185.4 178.5 185.4 178.5 187.8 181.7 187.8 181.7 188.9 178.5 188.9 178.5 191.6 182 191.6 182 192.6 177.3 192.6 177.3 184.3"/><polygon class="cls-2" points="186.7 184.2 187.6 184.3 188.4 184.5 188.3 185.6 187.7 185.4 187.2 185.3 186.7 185.3 186.2 185.3 185.8 185.5 185.4 185.8 185.3 186.4 185.3 186.8 185.7 187.2 186.2 187.5 186.7 187.8 187.4 188 187.9 188.5 188.4 188.9 188.7 189.5 188.8 190.3 188.7 191.1 188.4 191.7 187.9 192.2 187.3 192.6 186.6 192.8 185.8 192.8 184.9 192.7 184.1 192.5 184.2 191.4 184.7 191.5 185.3 191.7 185.9 191.7 186.4 191.7 186.8 191.6 187.2 191.3 187.4 190.9 187.6 190.4 187.4 189.8 187.1 189.4 186.7 189.1 186.1 188.9 185.5 188.5 184.9 188.3 184.4 187.8 184.1 187.2 184 186.4 184.1 185.7 184.5 185.1 185.1 184.6 185.8 184.3 186.7 184.2"/><polygon class="cls-3" points="186.7 184.2 187.6 184.3 188.4 184.5 188.3 185.6 187.7 185.4 187.2 185.3 186.7 185.3 186.2 185.3 185.8 185.5 185.4 185.8 185.3 186.4 185.3 186.8 185.7 187.2 186.2 187.5 186.7 187.8 187.4 188 187.9 188.5 188.4 188.9 188.7 189.5 188.8 190.3 188.7 191.1 188.4 191.7 187.9 192.2 187.3 192.6 186.6 192.8 185.8 192.8 184.9 192.7 184.1 192.5 184.2 191.4 184.7 191.5 185.3 191.7 185.9 191.7 186.4 191.7 186.8 191.6 187.2 191.3 187.4 190.9 187.6 190.4 187.4 189.8 187.1 189.4 186.7 189.1 186.1 188.9 185.5 188.5 184.9 188.3 184.4 187.8 184.1 187.2 184 186.4 184.1 185.7 184.5 185.1 185.1 184.6 185.8 184.3 186.7 184.2"/><polygon class="cls-2" points="191.1 184.3 195.7 184.3 195.7 185.4 192.3 185.4 192.3 187.8 195.4 187.8 195.4 188.9 192.3 188.9 192.3 191.6 195.7 191.6 195.7 192.6 191.1 192.6 191.1 184.3"/><polygon class="cls-3" points="191.1 184.3 195.7 184.3 195.7 185.4 192.3 185.4 192.3 187.8 195.4 187.8 195.4 188.9 192.3 188.9 192.3 191.6 195.7 191.6 195.7 192.6 191.1 192.6 191.1 184.3"/><path class="cls-2" d="M200.9,184.3h1.2l3.5,8.3h-1.2l-.9-2.1h-4l-.8,2.1h-1.3l3.5-8.3Zm.6,1.1l-1.7,4.1h3.3l-1.7-4.1Z"/><path class="cls-3" d="M200.9,184.3h1.2l3.5,8.3h-1.2l-.9-2.1h-4l-.8,2.1h-1.3l3.5-8.3Zm.6,1.1l-1.7,4.1h3.3l-1.7-4.1Z"/><path class="cls-2" d="M207.3,184.3h3.6l.6,.4,.5,.4,.4,.6v1.5l-.4,.5-.5,.4-.6,.2h.2v.3h.3v.4l.3,.3,1.6,3.3h-1.3l-1.3-2.8-.4-.6-.5-.2h-1.2v3.6h-1.2v-8.3Zm1.2,1v2.5h1.8l.6-.3,.4-.4v-1l-.4-.3-.5-.3h-1.9Z"/><path class="cls-3" d="M207.3,184.3h3.6l.6,.4,.5,.4,.4,.6v1.5l-.4,.5-.5,.4-.6,.2h.2v.3h.3v.4l.3,.3,1.6,3.3h-1.3l-1.3-2.8-.4-.6-.5-.2h-1.2v3.6h-1.2v-8.3Zm1.2,1v2.5h1.8l.6-.3,.4-.4v-1l-.4-.3-.5-.3h-1.9Z"/><polygon class="cls-2" points="219.2 184.2 220.1 184.3 221.1 184.6 221 185.7 220.1 185.3 219.2 185.3 218.2 185.4 217.3 185.9 216.6 186.6 216.2 187.4 216.1 188.5 216.2 189.6 216.6 190.5 217.3 191.2 218.2 191.6 219.2 191.7 219.8 191.7 220.5 191.6 221 191.4 221.1 192.5 220.1 192.8 219.2 192.8 218 192.7 216.9 192.3 216 191.7 215.3 190.8 214.9 189.7 214.8 188.5 214.9 187.3 215.4 186.2 216 185.4 216.9 184.7 218 184.3 219.2 184.2"/><polygon class="cls-3" points="219.2 184.2 220.1 184.3 221.1 184.6 221 185.7 220.1 185.3 219.2 185.3 218.2 185.4 217.3 185.9 216.6 186.6 216.2 187.4 216.1 188.5 216.2 189.6 216.6 190.5 217.3 191.2 218.2 191.6 219.2 191.7 219.8 191.7 220.5 191.6 221 191.4 221.1 192.5 220.1 192.8 219.2 192.8 218 192.7 216.9 192.3 216 191.7 215.3 190.8 214.9 189.7 214.8 188.5 214.9 187.3 215.4 186.2 216 185.4 216.9 184.7 218 184.3 219.2 184.2"/><polygon class="cls-2" points="223.1 184.3 224.3 184.3 224.3 187.8 228.3 187.8 228.3 184.3 229.5 184.3 229.5 192.6 228.3 192.6 228.3 188.9 224.3 188.9 224.3 192.6 223.1 192.6 223.1 184.3"/><polygon class="cls-3" points="223.1 184.3 224.3 184.3 224.3 187.8 228.3 187.8 228.3 184.3 229.5 184.3 229.5 192.6 228.3 192.6 228.3 188.9 224.3 188.9 224.3 192.6 223.1 192.6 223.1 184.3"/></svg>