<svg id="Layer_1" data-name="Layer 1" xmlns="http://www.w3.org/2000/svg" xmlns:xlink="http://www.w3.org/1999/xlink" viewBox="0 0 270.1 79.4"><defs><linearGradient id="Dégradé_sans_nom_2" x1="724.61" y1="165.3" x2="668.03" y2="221.87" gradientUnits="userSpaceOnUse"><stop offset="0" stop-color="#f99e49"/><stop offset="0.42" stop-color="#f89a45"/><stop offset="0.86" stop-color="#f79038"/><stop offset="1" stop-color="#f68b33"/></linearGradient></defs><path d="M696.8,232.8a39.7,39.7,0,1,1,39.7-39.4A39.6,39.6,0,0,1,696.8,232.8Z" transform="translate(-657.1 -153.5)" fill="url(#Dégradé_sans_nom_2)"/><path d="M751.7,173.7h12.9a22.3,22.3,0,0,1,8.3,1.4,18.8,18.8,0,0,1,6.4,4,17.7,17.7,0,0,1,4.1,6.2,23,23,0,0,1,0,15.8,16.8,16.8,0,0,1-3.9,6.1,16.6,16.6,0,0,1-6.4,4,22.5,22.5,0,0,1-8.4,1.4h-13Zm12.6,32a14.4,14.4,0,0,0,5.1-.9,11.7,11.7,0,0,0,6.5-6.6,14.6,14.6,0,0,0-.6-11.5,11.5,11.5,0,0,0-10.6-6.1h-5.4v25.1Z" transform="translate(-657.1 -153.5)" fill="#fff"/><path d="M803.3,211.6a20.8,20.8,0,0,1-6.3-4.1,19.9,19.9,0,0,1-4-6.4,21.1,21.1,0,0,1-1.5-8,21.5,21.5,0,0,1,1.5-8,20.5,20.5,0,0,1,4-6.3,20.1,20.1,0,0,1,6.4-4.1,20.7,20.7,0,0,1,8-1.5,20.2,20.2,0,0,1,7.9,1.5,17,17,0,0,1,6.3,4,17.2,17.2,0,0,1,4.1,6.3,22.9,22.9,0,0,1,0,16.3,18.1,18.1,0,0,1-4.1,6.3,18.4,18.4,0,0,1-6.3,4,20.2,20.2,0,0,1-7.9,1.5A21.6,21.6,0,0,1,803.3,211.6Zm12.8-6.7a11.2,11.2,0,0,0,3.8-2.6,12.7,12.7,0,0,0,2.4-4.1,14.4,14.4,0,0,0,.9-5.1,13.8,13.8,0,0,0-1.5-6.5,11,11,0,0,0-4.2-4.6,11.3,11.3,0,0,0-6.1-1.6,11.4,11.4,0,0,0-10.3,6.3,13.7,13.7,0,0,0-1.5,6.4,14.1,14.1,0,0,0,1.5,6.5,12.4,12.4,0,0,0,4.2,4.6,11.7,11.7,0,0,0,6.1,1.7A10.4,10.4,0,0,0,816.1,204.9Z" transform="translate(-657.1 -153.5)" fill="#fff"/><path d="M879.1,173.7v38.9h-7.7V188.4h0l-9.6,16.8h-5l-9.5-16.8h-.1v24.2h-7.6V173.7h7.8l11.9,22.1h.1l11.9-22.1Z" transform="translate(-657.1 -153.5)" fill="#fff"/><path d="M899.2,211.6a20.8,20.8,0,0,1-6.3-4.1,19.9,19.9,0,0,1-4-6.4,21.1,21.1,0,0,1-1.5-8,21.5,21.5,0,0,1,1.5-8,20.5,20.5,0,0,1,4-6.3,20.1,20.1,0,0,1,6.4-4.1,20.7,20.7,0,0,1,8-1.5,20.2,20.2,0,0,1,7.9,1.5,17,17,0,0,1,6.3,4,17.2,17.2,0,0,1,4.1,6.3,22.9,22.9,0,0,1,0,16.3,18.1,18.1,0,0,1-4.1,6.3,18.4,18.4,0,0,1-6.3,4,20.2,20.2,0,0,1-7.9,1.5A21.6,21.6,0,0,1,899.2,211.6Zm12.8-6.7a11.2,11.2,0,0,0,3.8-2.6,12.7,12.7,0,0,0,2.4-4.1,14.4,14.4,0,0,0,.9-5.1,13.8,13.8,0,0,0-1.5-6.5,11,11,0,0,0-4.2-4.6,11.3,11.3,0,0,0-6.1-1.6,11.4,11.4,0,0,0-10.3,6.3,13.7,13.7,0,0,0-1.5,6.4,14.1,14.1,0,0,0,1.5,6.5,12.4,12.4,0,0,0,4.2,4.6,11.7,11.7,0,0,0,6.1,1.7A10.4,10.4,0,0,0,912,204.9Z" transform="translate(-657.1 -153.5)" fill="#fff"/><polygon points="54.7 59.2 51 59.2 51 39.4 39.7 32.9 28.4 39.4 28.4 59.2 24.7 59.2 24.7 37.2 39.7 28.6 54.7 37.2 54.7 59.2" fill="#fff"/><path d="M715.9,188.3a22.1,22.1,0,0,0-19.1-11v-3.8a25.9,25.9,0,0,1,22.3,12.9Z" transform="translate(-657.1 -153.5)" fill="#fff"/><path d="M724.1,183.6a31.5,31.5,0,0,0-27.3-15.8V164a35.6,35.6,0,0,1,30.6,17.7Z" transform="translate(-657.1 -153.5)" fill="#fff"/></svg>