<?xml version="1.0" encoding="UTF-8"?><svg id="a" xmlns="http://www.w3.org/2000/svg" xmlns:xlink="http://www.w3.org/1999/xlink" viewBox="0 0 297.6378 107.71654"><defs><style>.c{fill:url(#b);}.d{fill:#fff;}.e{fill:#3e3e3e;}</style><linearGradient id="b" x1="81.68003" y1="26.02288" x2="25.11955" y2="82.58336" gradientTransform="matrix(1, 0, 0, 1, 0, 0)" gradientUnits="userSpaceOnUse"><stop offset="0" stop-color="#ffa839"/><stop offset=".33457" stop-color="#ffa338"/><stop offset=".68057" stop-color="#ff9735"/><stop offset="1" stop-color="#ff8531"/></linearGradient></defs><g><path class="e" d="M107.71654,34.46917h12.90542c3.04104,0,5.82668,.47933,8.35798,1.43907s4.66917,2.28761,6.41358,3.9847c1.74333,1.69601,3.0943,3.74827,4.05074,6.15572,.95753,2.40852,1.43575,5.03296,1.43575,7.87655,0,2.84251-.46083,5.45399-1.3814,7.83553-.92166,2.38045-2.23568,4.41976-3.94423,6.11577-1.70855,1.69709-3.82359,3.01632-6.3462,3.95879-2.52152,.94139-5.32998,1.41208-8.42428,1.41208h-13.06736V34.46917Zm12.58371,31.92832c1.86071,0,3.57796-.31955,5.15173-.95866,1.57378-.64019,2.90193-1.51572,3.98444-2.62552,1.08252-1.11088,1.92266-2.43011,2.52261-3.95771,.59886-1.52867,.89884-3.17178,.89884-4.9304,0-2.39881-.51409-4.55795-1.54335-6.47743-1.02817-1.9184-2.46392-3.41576-4.30615-4.48994-1.84223-1.07525-3.91706-1.61288-6.22447-1.61288h-5.44736v25.05253h4.96371Z"/><path class="e" d="M159.45125,72.20774c-2.47805-.99429-4.58004-2.36318-6.30598-4.10453-1.72594-1.74135-3.07691-3.84219-4.05183-6.30254-.97492-2.46142-1.46183-5.11285-1.46183-7.95536,0-2.84359,.48691-5.4907,1.46183-7.94241,.97492-2.45279,2.32589-4.54931,4.05183-6.29066s3.83228-3.10917,6.31903-4.10453c2.48674-.99429,5.17891-1.49197,8.07648-1.49197,2.84432,0,5.48649,.48365,7.92867,1.45202s4.53874,2.31028,6.29185,4.02464c1.75311,1.71544,3.13017,3.80657,4.13226,6.27663,1.00209,2.47006,1.50313,5.16143,1.50313,8.07627,0,2.91376-.50104,5.60945-1.50313,8.08815-1.00209,2.4787-2.37914,4.57522-4.13226,6.28958-1.75311,1.71544-3.84967,3.05627-6.29185,4.02464-2.44218,.96838-5.08435,1.4531-7.92867,1.4531-2.91606,0-5.61256-.49768-8.08953-1.49305Zm12.79891-6.60914c1.45748-.64019,2.70955-1.51896,3.7562-2.63847s1.86941-2.47006,2.46827-4.05163,.89884-3.26894,.89884-5.06319c0-2.39881-.51409-4.56659-1.54226-6.50334-1.02926-1.93675-2.44218-3.44707-4.23986-4.53096s-3.8062-1.62583-6.0234-1.62583c-2.29002,0-4.34745,.56354-6.1723,1.69277-1.82376,1.12815-3.23233,2.65575-4.22573,4.58386-.99231,1.92811-1.489,4.05487-1.489,6.3835,0,2.34483,.4967,4.4813,1.489,6.40941,.99339,1.92811,2.40197,3.46003,4.22573,4.59681,1.82484,1.13787,3.88228,1.70572,6.1723,1.70572,1.6629,0,3.22364-.31955,4.68221-.95866Z"/><path class="e" d="M235.33607,34.46917v38.7782h-7.67434v-24.09387h-.08043l-9.52527,16.73767h-5.01696l-9.52527-16.73767h-.08043v24.09387h-7.67434V34.46917h7.78086l11.99463,22.06752h.10651l11.9142-22.06752h7.78086Z"/><path class="e" d="M255.51913,72.20774c-2.47805-.99429-4.58004-2.36318-6.30598-4.10453-1.72594-1.74135-3.07691-3.84219-4.05183-6.30254-.97492-2.46142-1.46183-5.11285-1.46183-7.95536,0-2.84359,.48691-5.4907,1.46183-7.94241,.97492-2.45279,2.32589-4.54931,4.05183-6.29066,1.72594-1.74135,3.83228-3.10917,6.31903-4.10453,2.48674-.99429,5.17891-1.49197,8.07648-1.49197,2.84432,0,5.48649,.48365,7.92867,1.45202s4.53874,2.31028,6.29185,4.02464c1.75311,1.71544,3.13017,3.80657,4.13226,6.27663s1.50313,5.16143,1.50313,8.07627c0,2.91376-.50104,5.60945-1.50313,8.08815-1.00209,2.4787-2.37914,4.57522-4.13226,6.28958-1.75311,1.71544-3.84967,3.05627-6.29185,4.02464-2.44218,.96838-5.08435,1.4531-7.92867,1.4531-2.91606,0-5.61256-.49768-8.08953-1.49305Zm12.79891-6.60914c1.45748-.64019,2.70955-1.51896,3.7562-2.63847s1.86941-2.47006,2.46827-4.05163c.59886-1.58157,.89884-3.26894,.89884-5.06319,0-2.39881-.51409-4.56659-1.54226-6.50334-1.02926-1.93675-2.44218-3.44707-4.23986-4.53096s-3.8062-1.62583-6.0234-1.62583c-2.29002,0-4.34745,.56354-6.1723,1.69277-1.82376,1.12815-3.23233,2.65575-4.22573,4.58386-.99231,1.92811-1.489,4.05487-1.489,6.3835,0,2.34483,.4967,4.4813,1.489,6.40941,.99339,1.92811,2.40197,3.46003,4.22573,4.59681,1.82484,1.13787,3.88228,1.70572,6.1723,1.70572,1.6629,0,3.22364-.31955,4.68221-.95866Z"/></g><g><path class="c" d="M53.83926,93.54331c-21.82681-.03007-39.66062-17.63446-39.66603-39.69468-.00533-21.75717,17.49384-39.65736,39.67117-39.67539,22.06591-.01794,39.83695,17.84205,39.69809,39.94877-.13739,21.87327-17.8704,39.40736-39.70324,39.42129Z"/><polygon class="d" points="68.84819 73.34127 65.13464 73.34127 65.13464 53.55581 53.85834 47.042 42.58205 53.55581 42.58205 73.34127 38.86849 73.34127 38.86849 51.41057 53.85834 42.75225 68.84819 51.41057 68.84819 73.34127"/><path class="d" d="M72.99203,49.0231c-3.94129-6.81544-11.27306-11.04903-19.13369-11.04903v-3.71529c9.18171,0,17.74461,4.94448,22.34788,12.90344l-3.21419,1.86088Z"/><path class="d" d="M81.21099,44.27155c-5.63509-9.74138-16.11593-15.79266-27.35265-15.79266v-3.71529c12.55744,0,24.26977,6.76217,30.56684,17.64707l-3.21419,1.86088Z"/></g></svg>