<?xml version="1.0" encoding="utf-8"?>
<!-- Generator: Adobe Illustrator 26.3.1, SVG Export Plug-In . SVG Version: 6.00 Build 0)  -->
<svg version="1.1" id="Calque_1" xmlns="http://www.w3.org/2000/svg" xmlns:xlink="http://www.w3.org/1999/xlink" x="0px" y="0px"
	 viewBox="0 0 158.7 48.2" style="enable-background:new 0 0 158.7 48.2;" xml:space="preserve">
<style type="text/css">
	.st0{fill:#677078;}
	.st1{fill:#009870;}
</style>
<polygon class="st0" points="72.5,23.5 72.5,7.8 75.5,7.8 75.5,20.9 81.6,20.9 81.6,23.5 "/>
<polygon class="st0" points="59,23.5 59,7.8 67.5,7.8 67.5,10.4 62,10.4 61.9,14.2 67.4,14.2 67.4,16.8 62,16.8 62,20.9 67.5,20.9 
	67.5,23.5 "/>
<polygon class="st0" points="28.1,23.5 28.1,7.7 31.3,7.7 38.2,19.2 38.3,7.8 41.1,7.8 41.1,23.6 37.8,23.6 30.9,12.1 31,23.5 "/>
<polygon class="st0" points="20.1,23.5 20.2,7.8 23.2,7.8 23.2,23.5 "/>
<path class="st1" d="M7.5,18.7H6.3V5.4c0-2.6-3-4.3-4.2-4.6l-1,1.6c0.6,0.2,2.8,1,2.8,2.9v11.6C1.6,15.3,0,13.4,0,10.7V0h15v10.7
	c0,2.7-1.6,4.6-3.8,6.2V5.3c0-2,2.1-2.7,2.7-2.9l-1-1.6c-1.2,0.4-4.2,2.1-4.2,4.6v13.3L7.5,18.7z"/>
<path class="st0" d="M52.6,7.8c0.7,0.2,1.4,0.5,2.1,0.9l0.1,0l0,0.1L53.6,11l0,0.1L53.5,11c-0.5-0.3-0.9-0.6-1.5-0.8
	c-0.4-0.2-0.8-0.3-1.2-0.3c-0.6,0-1.3,0.2-1.7,0.6c-0.4,0.4-0.7,1-0.7,1.6c0,1.3,1.2,1.8,2.5,2.3c1.8,0.8,3.9,1.6,3.9,4.7v0l0,0
	c0,1.2-0.5,2.4-1.5,3.2c-1.1,0.9-2.4,1.4-3.8,1.3h-0.1c-0.9,0-1.8-0.2-2.7-0.5c-0.8-0.3-1.6-0.6-2.3-1l-0.1,0l0-0.1l1.3-2.2l0-0.1
	l0.1,0c0.1,0.1,0.2,0.1,0.4,0.2c0.9,0.6,1.9,1,3,1.2c0.6,0,1.3-0.2,1.8-0.6c0.4-0.3,0.7-0.9,0.7-1.4c0-1.3-1.2-1.8-2.6-2.4
	c-1.8-0.8-3.9-1.7-3.9-4.6c0-1.3,0.5-2.5,1.5-3.4c1.1-0.9,2.4-1.4,3.8-1.4C51.2,7.5,51.9,7.6,52.6,7.8"/>
<path class="st1" d="M85.2,22.5c1.3,0.8,2.8,1.3,4.3,1.2c3.4,0,5-2.2,5-4.5c0-4.9-7-4.1-7-7.5c0-1.5,1.2-2.7,2.7-2.7
	c0.1,0,0.1,0,0.2,0c1.2,0,2.4,0.4,3.3,1.1l0.7-1.4c-1.2-0.8-2.7-1.2-4.1-1.2c-2.8,0-4.7,1.7-4.7,4.1c0,5.4,6.9,3.8,6.9,7.8
	c0,1.5-1.2,2.8-2.7,2.8c-0.1,0-0.2,0-0.4,0c-1.4-0.1-2.7-0.6-3.8-1.4l-0.9,1.4L85.2,22.5z"/>
<path class="st1" d="M158.3,23.4v-1.6h-6.5l0-13.9h-1.9v15.6L158.3,23.4L158.3,23.4z M141.4,16.6h-5.1l2.6-7h0L141.4,16.6z
	 M131.4,23.4h2l2.2-5.2h6.4l2,5.2h2.2l-6.3-15.6h-1.8L131.4,23.4z M119.3,9.5h4.9l0,13.9h1.9l0-13.9h4.9V7.9h-11.8L119.3,9.5
	L119.3,9.5z M113.3,23.4h1.9l0-15.6h-1.9L113.3,23.4z M100.9,23.4l0-6.4h2.2c2.6,0,5.5-1.2,5.5-4.6c0-3-2-4.5-4.9-4.5h-4.7v15.6
	H100.9z M101,9.2h2.3c2.5,0,3.5,1.5,3.5,3.1c0,1.7-1.3,3.1-3,3.2c-0.1,0-0.2,0-0.4,0h-2.5L101,9.2z"/>
<path class="st0" d="M120.2,37.5h0.7l0-4.7h0l3.2,4.7h0.7l0.1-5.9h-0.7l0,4.6h0l-3.2-4.6h-0.7L120.2,37.5z M115.6,32.1h0.9
	c1,0,1.3,0.6,1.3,1.2c0,0.9-0.7,1.1-1.5,1.1h-0.7L115.6,32.1z M114.8,37.5h0.7l0-2.5h0.5c0.6,0,0.7,0.3,1.1,0.8l1.3,1.7h0.9
	l-1.3-1.8c-0.2-0.3-0.6-0.8-1-0.9v0c0.8-0.1,1.5-0.8,1.5-1.6c0-1-0.7-1.5-1.9-1.5h-1.8L114.8,37.5z M110.4,37.5h3.1v-0.6h-2.4l0-2
	h2.2v-0.6h-2.2l0-2h2.3v-0.6h-3L110.4,37.5z M106.2,32.1h0.6c0.9,0,1.3,0.4,1.3,1c0,0.6-0.4,1-1.4,1h-0.6L106.2,32.1z M106.2,34.7
	h0.7c0.8,0,1.4,0.4,1.4,1.1c0,0.8-0.5,1.1-1.2,1.1h-0.9L106.2,34.7z M105.4,37.5h1.6c1.1,0,1.9-0.6,1.9-1.6c0-0.7-0.5-1.3-1.2-1.4v0
	c0.6-0.1,1.1-0.7,1-1.4c0-0.7-0.4-1.4-1.7-1.4h-1.6L105.4,37.5z M101.8,37.5v-0.6h-2.5l0.1-5.2h-0.7l-0.1,5.9H101.8z M95.8,34.9
	h-1.9l1-2.6h0L95.8,34.9z M92.1,37.5h0.8l0.8-2h2.4l0.8,2h0.8l-2.4-5.9h-0.7L92.1,37.5z M87.9,32.2h1.9l-0.1,5.3h0.7l0.1-5.3h1.9
	v-0.6h-4.4V32.2z M86,37.5h0.7l0.1-5.9h-0.7L86,37.5z M81.2,37.5h0.7l0-2.4h0.8c1,0,2.1-0.4,2.1-1.8c0-0.9-0.7-1.7-1.6-1.7
	c-0.1,0-0.2,0-0.3,0h-1.8L81.2,37.5z M82,32.1h0.9c1,0,1.3,0.6,1.3,1.2c0,0.6-0.5,1.2-1.1,1.2c0,0-0.1,0-0.1,0h-0.9L82,32.1z
	 M76.4,37.1c0.5,0.3,1,0.5,1.6,0.5c0.9,0.1,1.8-0.5,1.9-1.5c0-0.1,0-0.1,0-0.2c0-1.8-2.6-1.5-2.6-2.8c0-0.6,0.5-1,1-1c0,0,0,0,0.1,0
	c0.5,0,0.9,0.2,1.2,0.4l0.3-0.5c-0.5-0.3-1-0.5-1.6-0.5c-0.9-0.1-1.7,0.5-1.8,1.4c0,0,0,0.1,0,0.1c0,2,2.6,1.4,2.6,2.9
	c0,0.6-0.5,1.1-1,1.1c0,0-0.1,0-0.1,0c-0.4,0-0.9-0.2-1.2-0.4L76.4,37.1z M72.1,37.1c0.5,0.3,1,0.5,1.6,0.5c0.9,0.1,1.8-0.5,1.9-1.5
	c0-0.1,0-0.1,0-0.2c0-1.8-2.6-1.5-2.6-2.8c0-0.6,0.5-1,1-1c0,0,0,0,0.1,0c0.5,0,0.9,0.2,1.2,0.4l0.3-0.5c-0.5-0.3-1-0.5-1.6-0.5
	c-0.9-0.1-1.7,0.5-1.8,1.4c0,0,0,0.1,0,0.1c0,2,2.6,1.4,2.6,2.9c0,0.6-0.5,1.1-1,1.1c0,0-0.1,0-0.1,0c-0.4,0-0.9-0.2-1.2-0.4
	L72.1,37.1z M66.9,32.2h1.9l-0.1,5.3h0.7l0.1-5.3h1.9v-0.6h-4.4L66.9,32.2L66.9,32.2z M65.3,34.9h-1.9l1-2.6h0L65.3,34.9z
	 M61.6,37.5h0.8l0.8-2h2.4l0.8,2h0.8l-2.4-5.9h-0.7L61.6,37.5z M64.7,31.2h0.8v-0.9h-0.8V31.2z M63.3,31.2h0.8v-0.9h-0.8V31.2z
	 M57.4,32.2h1.9l-0.1,5.3h0.7l0.1-5.3h1.9v-0.6h-4.4L57.4,32.2L57.4,32.2z M55.5,37.5h0.7l0.1-5.9h-0.7L55.5,37.5z M50.7,37.1
	c0.5,0.3,1,0.5,1.6,0.5c0.9,0.1,1.8-0.5,1.9-1.5c0-0.1,0-0.1,0-0.2c0-1.8-2.6-1.5-2.6-2.8c0-0.6,0.5-1,1-1c0,0,0,0,0.1,0
	c0.5,0,0.9,0.2,1.2,0.4l0.3-0.5c-0.5-0.3-1-0.5-1.6-0.5c-0.9-0.1-1.7,0.5-1.8,1.4c0,0,0,0.1,0,0.1c0,2,2.6,1.4,2.6,2.9
	c0,0.6-0.5,1.1-1,1.1c0,0-0.1,0-0.1,0c-0.4,0-0.9-0.2-1.2-0.4L50.7,37.1z M46.3,32.1h0.9c1,0,1.3,0.6,1.3,1.2c0,0.9-0.7,1.1-1.5,1.1
	h-0.7L46.3,32.1z M45.5,37.5h0.7l0-2.5h0.5c0.6,0,0.7,0.3,1.1,0.8l1.3,1.7H50l-1.3-1.8c-0.2-0.3-0.6-0.8-1-0.9v0
	c0.8-0.1,1.5-0.8,1.5-1.6c0-1-0.8-1.5-1.9-1.5h-1.8L45.5,37.5z M41.1,37.5h3.1v-0.6h-2.4l0-2h2.2v-0.6h-2.2l0-2h2.3v-0.6h-3
	L41.1,37.5z M36.9,37.5h0.7l2.5-5.9h-0.7l-2.1,5l-1.9-5h-0.8L36.9,37.5z M32.8,37.5h0.7l0.1-5.9h-0.7L32.8,37.5z M26.5,37.5h0.7
	l0-4.7h0l3.2,4.7h0.7l0-5.9h-0.7l0,4.6h0l-3.2-4.6h-0.7L26.5,37.5z M24.1,31.6l0,3.6c0,1.3-0.7,1.8-1.6,1.8
	c-0.8,0.1-1.5-0.4-1.6-1.2c0-0.1,0-0.3,0-0.4c0-0.5,0-1.1,0-1.6l0-2.2h-0.7l0,2c0,0.6,0,1.1,0,1.6c-0.2,1.1,0.6,2.2,1.7,2.3
	c0.2,0,0.4,0,0.6,0c1.2,0.1,2.2-0.7,2.4-1.8c0-0.2,0-0.3,0-0.5l0-3.7L24.1,31.6L24.1,31.6z"/>
<path class="st0" d="M154.8,48h3.1v-0.6h-2.4l0-2h2.2v-0.6h-2.2l0-2h2.3v-0.6h-3L154.8,48z M148.5,48h0.7l0-4.7h0l3.2,4.7h0.7
	l0.1-5.9h-0.7l0,4.6h0l-3.2-4.6h-0.7L148.5,48z M143.9,42.7h0.9c0.6-0.1,1.2,0.3,1.3,1c0,0.1,0,0.1,0,0.2c0,0.9-0.7,1.1-1.5,1.1
	h-0.7V42.7z M143.1,48h0.7l0-2.5h0.5c0.6,0,0.7,0.3,1.1,0.8l1.2,1.7h1l-1.3-1.8c-0.2-0.3-0.6-0.8-1-0.9v0c0.8-0.1,1.5-0.8,1.5-1.6
	c0-1-0.7-1.5-1.9-1.5h-1.8L143.1,48z M138.7,48h3.1v-0.6h-2.4l0-2h2.2v-0.6h-2.2l0-2h2.3v-0.6h-3L138.7,48z M134.6,42.7h0.6
	c0.9,0,1.3,0.4,1.3,1c0,0.6-0.4,1-1.4,1h-0.6L134.6,42.7z M134.5,45.3h0.7c0.8,0,1.4,0.4,1.4,1.1c0,0.8-0.5,1.1-1.2,1.1h-0.9
	L134.5,45.3z M133.8,48h1.6c1.1,0,1.9-0.6,1.9-1.6c0-0.7-0.5-1.3-1.2-1.4v0c0.6-0.1,1.1-0.7,1-1.4c0-0.7-0.4-1.4-1.7-1.4h-1.6
	L133.8,48z M126.9,48h3.1v-0.6h-2.4l0-2h2.2v-0.6h-2.2l0-2h2.3v-0.6h-3L126.9,48z M120.6,48h1.6c1.9,0,3.4-1,3.4-3
	c0-1.6-1.2-2.8-2.7-2.9c-0.1,0-0.3,0-0.4,0h-1.8L120.6,48z M121.4,42.7h0.9c1.2-0.2,2.4,0.7,2.6,2c0,0.1,0,0.3,0,0.4
	c0,1.6-1.1,2.4-2.7,2.4h-0.8L121.4,42.7z M113.8,48h3.1v-0.6h-2.4l0-2h2.2v-0.6h-2.2l0-2h2.3v-0.6h-3L113.8,48z M109.2,42.7h0.9
	c1,0,1.3,0.6,1.3,1.2c0,0.9-0.7,1.1-1.5,1.1h-0.7L109.2,42.7z M108.4,48h0.7l0-2.5h0.5c0.6,0,0.7,0.3,1.1,0.8L112,48h0.9l-1.3-1.8
	c-0.2-0.3-0.6-0.8-1-0.9v0c0.8-0.1,1.5-0.8,1.5-1.6c0-1-0.7-1.5-1.9-1.5h-1.8L108.4,48z M106,48h0.7l0.1-5.9H106L106,48z
	 M103.2,45.5h-1.9l1-2.6h0L103.2,45.5z M99.4,48h0.8l0.8-1.9h2.4l0.8,1.9h0.8l-2.4-5.9h-0.7L99.4,48z M95.2,42.8h1.9L97,48.1h0.7
	l0.1-5.3h1.9v-0.6h-4.4L95.2,42.8z M93.4,48h0.7l0.1-5.9h-0.7L93.4,48z M88.5,47.7c0.5,0.3,1,0.5,1.6,0.5c0.9,0.1,1.8-0.6,1.9-1.5
	c0-0.1,0-0.1,0-0.2c0-1.8-2.6-1.5-2.6-2.8c0-0.6,0.4-1,1-1c0,0,0,0,0.1,0c0.5,0,0.9,0.2,1.2,0.4l0.3-0.5c-0.5-0.3-1-0.5-1.6-0.5
	c-0.9-0.1-1.7,0.5-1.8,1.4c0,0,0,0.1,0,0.1c0,2,2.6,1.4,2.6,2.9c0,0.6-0.5,1.1-1,1.1c0,0-0.1,0-0.1,0c-0.4,0-0.9-0.2-1.2-0.4
	L88.5,47.7z M84.1,42.7H85c1,0,1.3,0.6,1.3,1.2c0,0.9-0.7,1.1-1.5,1.1h-0.7L84.1,42.7z M83.3,48h0.7l0-2.5h0.5
	c0.6,0,0.7,0.3,1.1,0.8l1.2,1.7h0.9l-1.3-1.8c-0.2-0.3-0.6-0.8-1-0.9v0c0.8-0.1,1.5-0.8,1.5-1.6c0-1-0.7-1.5-1.9-1.5h-1.8L83.3,48z
	 M78.9,48H82v-0.6h-2.4l0-2h2.2v-0.6h-2.2l0-2H82v-0.6h-3L78.9,48z M74.8,48h0.7l2.5-5.9h-0.8l-2.1,5l-1.9-5h-0.8L74.8,48z M70.7,48
	h0.7l0.1-5.9h-0.7L70.7,48z M64.3,48H65l0-4.7h0l3.1,4.7h0.7l0.1-5.9h-0.7l0,4.6h0L65,42.2h-0.7L64.3,48z M62,42.2l0,3.6
	c0,1.3-0.7,1.8-1.6,1.8c-0.8,0.1-1.5-0.4-1.6-1.2c0-0.1,0-0.3,0-0.4c0-0.5,0-1.1,0-1.6v-2.2H58l0,2c0,0.6,0,1.1,0,1.6
	c-0.2,1.1,0.6,2.2,1.7,2.3c0.2,0,0.4,0,0.5,0c1.2,0.1,2.2-0.7,2.4-1.8c0-0.2,0-0.3,0-0.5l0-3.7H62z M54.4,48v-0.6h-2.5l0-5.3h-0.7
	L51.1,48H54.4z M48.4,45.5h-1.9l1-2.6h0L48.4,45.5z M44.6,48h0.8l0.8-1.9h2.4l0.8,1.9h0.8l-2.3-5.9h-0.7L44.6,48z M40.4,42.8h1.9
	l-0.1,5.3h0.7l0.1-5.3h1.9v-0.6h-4.4L40.4,42.8L40.4,42.8z M38.6,48h0.7l0-5.9h-0.7L38.6,48z M33.7,48h0.7l0-2.4h0.8
	c1,0,2.1-0.5,2.1-1.8c0-0.9-0.7-1.7-1.6-1.7c-0.1,0-0.2,0-0.3,0h-1.8L33.7,48z M34.5,42.7h0.9c1,0,1.3,0.6,1.3,1.2
	c0,0.6-0.5,1.2-1.1,1.2c0,0-0.1,0-0.1,0h-0.9L34.5,42.7z M26.2,45.1c-0.1,1.6,1.2,3,2.8,3c0.1,0,0.2,0,0.3,0c1.7,0.1,3-1.2,3.1-2.9
	c0-0.1,0-0.1,0-0.2c0.1-1.6-1.2-3-2.8-3c-0.1,0-0.2,0-0.3,0c-1.7-0.1-3,1.2-3.1,2.9C26.2,45,26.2,45.1,26.2,45.1 M27,45.1
	c0.1-1.3,1.1-2.3,2.4-2.2c1.3,0.1,2.3,1.1,2.2,2.4c-0.1,1.2-1.1,2.2-2.3,2.2c-1.3,0-2.3-1-2.3-2.3C27,45.2,27,45.2,27,45.1 M28,41.8
	h0.7l0.6-0.8l0.6,0.8h0.7l-0.9-1.2h-0.8L28,41.8z M20.1,48h0.7l0-2.7h3.2l0,2.7h0.7l0-5.9h-0.7l0,2.6h-3.2l0-2.6h-0.7L20.1,48z"/>
</svg>
