<svg id="Calque_1" data-name="Calque 1" xmlns="http://www.w3.org/2000/svg" viewBox="0 0 240.94488 107.71654"><path d="M53.83926,93.54331A39.685,39.685,0,1,1,93.5425,54.122,39.66632,39.66632,0,0,1,53.83926,93.54331Z" style="fill:#008cf0"/><polygon points="38.868 51.411 38.868 73.341 42.582 73.341 42.582 53.555 53.858 47.042 65.135 53.555 65.135 73.341 68.848 73.341 68.848 51.411 53.858 42.752 38.868 51.411" style="fill:#fff"/><path d="M53.85809,34.259v3.71484A22.17268,22.17268,0,0,1,72.99223,49.02311l3.21432-1.86035A25.89718,25.89718,0,0,0,53.85809,34.259Z" style="fill:#fff"/><path d="M53.85809,24.76383v3.71484a31.69711,31.69711,0,0,1,27.35247,15.793l3.21432-1.86133A35.42278,35.42278,0,0,0,53.85809,24.76383Z" style="fill:#fff"/><path d="M110.55118,28.64442h8.43015a15.20269,15.20269,0,0,1,5.45965.94567,12.02642,12.02642,0,0,1,4.18952,2.61852,11.47729,11.47729,0,0,1,2.646,4.04518,13.95729,13.95729,0,0,1,.93787,5.176,14.24123,14.24123,0,0,1-.90237,5.14906,11.37027,11.37027,0,0,1-2.57647,4.01894,11.48516,11.48516,0,0,1-4.1455,2.60149,15.54977,15.54977,0,0,1-5.503.92794h-8.53594Zm8.22,20.98147a8.8144,8.8144,0,0,0,3.36525-.63,7.55766,7.55766,0,0,0,2.60274-1.72534,7.72943,7.72943,0,0,0,1.64783-2.60078,9.37862,9.37862,0,0,0-.421-7.49657,7.35909,7.35909,0,0,0-2.81289-2.95053,7.879,7.879,0,0,0-4.066-1.0599h-3.55836v16.4631Z" style="fill:#3e3e3d"/><path d="M144.34563,53.44405a12.00871,12.00871,0,0,1-4.11923-2.69726,12.17894,12.17894,0,0,1-2.64676-4.14167,14.76438,14.76438,0,0,1,0-10.4471,12.193,12.193,0,0,1,2.64676-4.13387,12.00162,12.00162,0,0,1,4.12775-2.69726,14.0062,14.0062,0,0,1,5.27577-.98043,13.84892,13.84892,0,0,1,5.17921.95418,12.26037,12.26037,0,0,1,4.11,2.64477,11.99763,11.99763,0,0,1,2.6993,4.12464,14.85545,14.85545,0,0,1,0,10.62233,11.97389,11.97389,0,0,1-2.6993,4.13316,12.2496,12.2496,0,0,1-4.11,2.64476,14.6222,14.6222,0,0,1-10.4635-.02625Zm8.36058-4.34314a7.37785,7.37785,0,0,0,2.45364-1.73386,7.99646,7.99646,0,0,0,1.61234-2.6625,9.36606,9.36606,0,0,0,.58714-3.32724,9.01425,9.01425,0,0,0-1.00744-4.27362,7.5887,7.5887,0,0,0-13.49648.07875,9.56884,9.56884,0,0,0,0,8.40677A7.57089,7.57089,0,0,0,145.61576,48.61a7.78117,7.78117,0,0,0,7.09045.49093Z" style="fill:#3e3e3d"/><path d="M193.91555,28.64442V54.12724h-5.01308V38.29412h-.05253l-6.22216,10.999h-3.27721l-6.22215-10.999h-.05254V54.12724H168.0628V28.64442h5.08266l7.8352,14.50151h.06957l7.78267-14.50151Z" style="fill:#3e3e3d"/><path d="M207.09965,53.44405a12.00871,12.00871,0,0,1-4.11923-2.69726,12.17894,12.17894,0,0,1-2.64676-4.14167,14.76438,14.76438,0,0,1,0-10.4471,12.193,12.193,0,0,1,2.64676-4.13387,12.00162,12.00162,0,0,1,4.12775-2.69726,14.0062,14.0062,0,0,1,5.27577-.98043,13.84892,13.84892,0,0,1,5.17921.95418,12.26037,12.26037,0,0,1,4.11,2.64477,11.99763,11.99763,0,0,1,2.6993,4.12464,14.85545,14.85545,0,0,1,0,10.62233,11.97389,11.97389,0,0,1-2.6993,4.13316,12.2496,12.2496,0,0,1-4.11,2.64476,14.6222,14.6222,0,0,1-10.4635-.02625Zm8.36057-4.34314a7.37779,7.37779,0,0,0,2.45365-1.73386,7.99646,7.99646,0,0,0,1.61234-2.6625,9.36606,9.36606,0,0,0,.58714-3.32724,9.01425,9.01425,0,0,0-1.00744-4.27362,7.5887,7.5887,0,0,0-13.49648.07875,9.56884,9.56884,0,0,0,0,8.40677A7.57089,7.57089,0,0,0,208.36978,48.61a7.78115,7.78115,0,0,0,7.09044.49093Z" style="fill:#3e3e3d"/><path d="M142.01575,61.88783h3.71058v8.08881h7.63943V61.88783h3.72342v18.6813h-3.72342V73.27636h-7.63943v7.29277h-3.71058Z" style="fill:#008cf0"/><path d="M172.75418,75.26647H163.7533a3.23154,3.23154,0,0,0,1.17456,1.79751,3.44411,3.44411,0,0,0,2.099.66765,3.76892,3.76892,0,0,0,3.06908-1.45085l2.23406,2.08a6.20572,6.20572,0,0,1-2.28541,1.76518,7.60494,7.60494,0,0,1-3.26121.66146,6.95333,6.95333,0,0,1-3.37628-.81554,5.92824,5.92824,0,0,1-2.3691-2.343,6.94845,6.94845,0,0,1-.86642-3.49231,7.23768,7.23768,0,0,1,.48694-2.67677,6.27611,6.27611,0,0,1,1.32959-2.10566,5.92643,5.92643,0,0,1,2.022-1.35479,6.55834,6.55834,0,0,1,2.52983-.4879,6.41055,6.41055,0,0,1,3.29925.84122,5.74129,5.74129,0,0,1,2.22073,2.32345,7.07,7.07,0,0,1,.78368,3.35774A5.52569,5.52569,0,0,1,172.75418,75.26647Zm-7.929-4.14712a2.98719,2.98719,0,0,0-1.05854,1.66912h5.6617a3.09551,3.09551,0,0,0-.9758-1.6501,2.69011,2.69011,0,0,0-1.79751-.5968A2.94734,2.94734,0,0,0,164.82515,71.11935Z" style="fill:#008cf0"/><path d="M188.18617,67.72975V80.56913h-3.27452V79.01557h-.06372a4.58339,4.58339,0,0,1-3.83945,1.77183,6.30691,6.30691,0,0,1-2.45851-.47506,5.70344,5.70344,0,0,1-1.95158-1.32863,6.04124,6.04124,0,0,1-1.27823-2.0933,8.07569,8.07569,0,0,1,0-5.38588,6.36492,6.36492,0,0,1,1.26491-2.1185,5.86078,5.86078,0,0,1,4.32069-1.87455,4.75663,4.75663,0,0,1,3.7881,1.66912h.05135V67.72975Zm-4.238,9.00041a3.496,3.496,0,0,0,.93775-2.52936,3.71289,3.71289,0,0,0-.91778-2.56788,2.97579,2.97579,0,0,0-2.31774-1.02715,3.12165,3.12165,0,0,0-2.35579.98863,3.61632,3.61632,0,0,0-.94441,2.6064,3.54024,3.54024,0,0,0,.91873,2.52936,3.29242,3.29242,0,0,0,4.67924,0Z" style="fill:#008cf0"/><path d="M191.71652,61.20734h3.441V80.56913h-3.441Z" style="fill:#008cf0"/><path d="M200.03074,79.70271a4.61138,4.61138,0,0,1-.9815-3.19082v-5.9318h-1.516V67.72975h1.516V63.53127l3.441-.37234v4.57082h3.49231v2.85034h-3.49231v5.45674a2.30987,2.30987,0,0,0,.2625,1.24542.96213.96213,0,0,0,.86737.398,3.56416,3.56416,0,0,0,1.61681-.44938l.88639,2.74763a6.963,6.963,0,0,1-1.476.60345,7.44086,7.44086,0,0,1-1.92686.20543A3.4488,3.4488,0,0,1,200.03074,79.70271Z" style="fill:#008cf0"/><path d="M218.1219,67.80013a3.8125,3.8125,0,0,1,2.47087,2.56787,7.905,7.905,0,0,1,.34714,2.48466V80.582h-3.45332V73.72574a3.71067,3.71067,0,0,0-.61058-2.4138,2.369,2.369,0,0,0-1.89357-.70617,2.82583,2.82583,0,0,0-2.20838.87974,3.71465,3.71465,0,0,0-.796,2.574v6.50957h-3.44095V61.20734H211.978v8.076h.05136a5.1232,5.1232,0,0,1,1.85553-1.32245,6.343,6.343,0,0,1,4.237-.16073Z" style="fill:#008cf0"/></svg>