<svg xmlns="http://www.w3.org/2000/svg" viewBox="0 0 65.26 68"><defs><style>.cls-1{fill:#fff;}.cls-2{fill:none;stroke:#000;stroke-miterlimit:10;}</style></defs><g id="Layer_2" data-name="Layer 2"><g id="Layer_1-2" data-name="Layer 1"><path class="cls-1" d="M19.81,45.83a11.31,11.31,0,1,1,11.3-11.31A11.32,11.32,0,0,1,19.81,45.83Z"/><path d="M19.81,23.72A10.81,10.81,0,1,1,9,34.52a10.81,10.81,0,0,1,10.81-10.8m0-1a11.81,11.81,0,1,0,11.8,11.8,11.8,11.8,0,0,0-11.8-11.8Z"/><line class="cls-2" x1="59.35" y1="11.5" x2="34.56" y2="25.67"/><line class="cls-2" x1="65.26" y1="33.93" x2="35.74" y2="33.93"/><line class="cls-2" x1="34.56" y1="42.19" x2="59.35" y2="54"/><rect class="cls-1" x="0.5" y="0.5" width="20" height="67" rx="9"/><path d="M11.5,1A8.51,8.51,0,0,1,20,9.5v49A8.51,8.51,0,0,1,11.5,67h-2A8.51,8.51,0,0,1,1,58.5V9.5A8.51,8.51,0,0,1,9.5,1h2m0-1h-2A9.52,9.52,0,0,0,0,9.5v49A9.52,9.52,0,0,0,9.5,68h2A9.52,9.52,0,0,0,21,58.5V9.5A9.52,9.52,0,0,0,11.5,0Z"/></g></g></svg>