<svg id="Layer_1" data-name="Layer 1" xmlns="http://www.w3.org/2000/svg" viewBox="0 0 50.5 45"><defs><style>.cls-1{fill:#fff;}.cls-2{fill:none;stroke:#000;stroke-miterlimit:10;}</style></defs><circle class="cls-1" cx="12" cy="23" r="9.5"/><path d="M153,117a9,9,0,1,1-9,9,9,9,0,0,1,9-9m0-1a10,10,0,1,0,10,10,10,10,0,0,0-10-10Z" transform="translate(-141 -103)"/><rect class="cls-1" x="0.5" y="0.5" width="13" height="44"/><path d="M154,104v43H142V104h12m1-1H141v45h14V103Z" transform="translate(-141 -103)"/><line class="cls-2" x1="45.5" y1="3.5" x2="24.5" y2="15.5"/><line class="cls-2" x1="50.5" y1="22.5" x2="25.5" y2="22.5"/><line class="cls-2" x1="24.5" y1="29.5" x2="45.5" y2="39.5"/></svg>