<svg id="Layer_1" data-name="Layer 1" xmlns="http://www.w3.org/2000/svg" viewBox="0 0 60.2 60.7"><g id="g8"><path id="path10" d="M152.9,155.5c-3.8,4.7-8.2,8.4-14.3,8.4-4.1,0-7.8-1.4-7.8-6.3a45.5,45.5,0,0,1,1.1-6.8l4.5-20.6h-6.9l.6-2.2h8c2.7,0,5.3-.3,8-.3l-5.3,22.6a51.1,51.1,0,0,0-1.3,7.2c0,2.3,2,2.8,3.8,2.8s3.3-1.1,4.5-1.9c3.9-2.5,5.8-7.3,6.8-11.7l4.5-18.7h9l-5.8,25.6a24.4,24.4,0,0,0-.9,5.2,1.7,1.7,0,0,0,1.8,1.4c3.1,0,6.9-7.2,8.1-9.7l1.9,1c-2.3,5.9-7.1,12.4-13.8,12.4s-6.6-3.3-6.5-8.4" transform="translate(-129.5 -103.2)" fill="#161413"/></g><g id="g12"><path id="path14" d="M175.9,126.2l3.2-23H182l-1.3,8.9h.1a4.7,4.7,0,0,1,3.6-1.7c3.1,0,5.3,2.9,5.3,6.9s-2.2,9.1-9.8,9.1A22.5,22.5,0,0,1,175.9,126.2Zm4.4-11.3-1.3,9.2h1.6c3.9,0,6.2-2.7,6.2-6.8s-1.3-4.3-3.3-4.3-3,.7-3.2,1.9" transform="translate(-129.5 -103.2)" fill="#161413"/></g></svg>